<?xml version="1.0" encoding="UTF-8"?> <svg xmlns="http://www.w3.org/2000/svg" width="507" height="523" viewBox="0 0 507 523" fill="none"> <path d="M98.2399 274.265V361.657H108.507C113.373 361.657 116.427 359.918 117.613 356.369C118.2 354.811 118.493 350.915 118.493 344.659V291.549C118.493 285.291 118.2 281.397 117.613 279.851C116.427 276.111 113.373 274.265 108.507 274.265H98.2399ZM98.2399 471.09H64.4932V245.211H118.493C125.893 245.211 131.773 245.798 136.08 246.983C143.693 248.927 148.56 254.799 150.747 264.569C151.933 269.266 152.493 277.525 152.493 289.225V346.686C152.493 361.955 151.013 372.563 147.973 378.533C144.92 384.489 139.293 388.169 131.093 389.559C126.773 390.326 115.84 390.71 98.2399 390.71V471.09ZM170.373 471.09V245.211H208.813C230.333 245.211 243.987 248.207 249.88 254.163C255.747 260.134 258.667 273.87 258.667 295.397V322.377C258.667 349.527 255.16 365.671 248.093 370.754C245.347 372.731 241.96 374.17 237.867 375.139L263.36 471.09H227.933L203.52 374.851V471.09H170.373ZM203.52 272.239V349.945H216.04C217.827 349.945 219.213 349.658 220.187 349.07C222.973 347.487 224.373 339.373 224.373 324.714V293.922C224.373 281.026 223.107 273.953 220.48 272.779C219.72 272.395 218.2 272.239 216.04 272.239H203.52ZM276.253 278.653C276.253 264.197 280.267 254.429 288.307 249.345C294.56 245.211 305.4 243.173 320.867 243.173C345.693 243.173 359.933 249.514 363.667 262.243C364.853 266.343 365.44 271.809 365.44 278.653V437.637C365.44 444.493 364.853 449.946 363.667 454.045C359.933 466.775 345.693 473.115 320.867 473.115C305.4 473.115 294.56 471.09 288.307 466.99C280.267 461.871 276.253 452.103 276.253 437.637V278.653ZM331.4 437.637V278.653C331.4 274.757 330.68 272.263 329.2 271.174C327.76 270.106 324.973 269.566 320.867 269.566C316.72 269.566 313.933 270.106 312.32 271.174C310.76 272.263 310 274.757 310 278.653V437.637C310 441.579 310.76 444.035 312.32 445.127C313.933 446.182 316.72 446.733 320.867 446.733C324.973 446.733 327.76 446.182 329.2 445.127C330.68 444.035 331.4 441.579 331.4 437.637V437.637ZM418.84 471.09H384.8V245.211H459.013V274.853H418.84V332.602H457.24V362.243H418.84V471.09ZM506.2 471.09H472.2V245.246H506.2V471.09Z" fill="white"></path> <path d="M0.853516 144.024H34.0003V194.463C34.0003 198.393 34.7602 200.851 36.4135 201.953C37.9335 203.044 40.8536 203.56 45.0003 203.56C49.1469 203.56 51.9735 203.044 53.4535 201.953C54.9735 200.851 55.6935 198.393 55.6935 194.463V167.493C55.6935 161.021 54.5469 155.568 52.1869 151.085C50.6135 147.92 48.2935 144.312 45.1202 140.212C44.1469 138.823 37.1335 130.24 24.0268 114.383C14.8402 103.272 8.58685 94.4614 5.25352 87.9894C2.33352 82.332 0.853516 73.9187 0.853516 62.7947V34.34C0.853516 20.052 4.86682 10.4867 12.8935 5.58404C18.9468 1.85737 29.6935 5.31118e-05 45.1202 5.31118e-05C70.1869 5.31118e-05 84.3602 6.38806 87.6535 19.0694C88.8402 23.3361 89.4268 28.8374 89.4268 35.5147V81.2654H55.6935V35.5147C55.6935 31.5827 54.9735 29.0894 53.4535 28.0361C51.9735 26.9441 49.1469 26.3801 45.0003 26.3801C40.8536 26.3801 37.9335 26.9441 36.4135 28.0361C34.7602 29.0894 34.0003 31.5827 34.0003 35.5147V61.6067C34.0003 66.8947 35.2669 71.7601 37.8003 76.2441C39.0269 78.4361 41.3602 81.7454 44.9069 86.2147C51.9736 94.8574 58.9869 103.464 65.8402 112.059C75.2802 123.6 81.4535 132.385 84.4135 138.44C87.7869 145.092 89.4268 153.877 89.4268 164.82V195.648C89.4268 209.937 85.4135 219.501 77.4268 224.403C71.3468 228.119 60.6002 229.941 45.1202 229.941C20.1202 229.941 5.97349 223.601 2.62682 210.92C1.44016 206.603 0.853516 201.149 0.853516 194.463V144.024ZM161.574 2.07336H195.32V195.949C195.32 201.607 194.814 206.603 193.84 210.92C192.107 219.119 186.44 224.703 176.84 227.616C171.174 229.185 162.68 229.941 151.334 229.941C126.52 229.941 112.534 223.601 109.4 210.92C108.214 206.005 107.614 201.019 107.614 195.949V2.07336H141.36V191.249C141.36 195.732 141.827 198.777 142.8 200.348C144.414 202.505 147.187 203.56 151.334 203.56C158.2 203.56 161.574 199.46 161.574 191.249V2.07336ZM249.267 31.1147V118.493H259.547C264.454 118.493 267.494 116.756 268.64 113.197C269.24 111.675 269.52 107.744 269.52 101.487V48.412C269.52 42.1654 269.24 38.2241 268.64 36.6641C267.494 32.9841 264.454 31.1147 259.547 31.1147H249.267ZM249.267 227.915H215.574V2.07336H269.52C276.96 2.07336 282.8 2.6614 287.12 3.84673C294.76 5.7534 299.627 11.6254 301.787 21.4427C302.974 26.092 303.56 34.34 303.56 46.0507V103.56C303.56 118.781 302.04 129.389 299 135.348C295.947 141.351 290.374 144.996 282.134 146.399C277.854 147.152 266.907 147.524 249.267 147.524V227.915ZM396.507 227.915H320.854V2.07336H396.507V31.1147H354.894V88.8774H394.48V117.931H354.894V198.861H396.507V227.915ZM413.254 227.915V2.07336H451.68C473.16 2.07336 486.867 5.04541 492.734 10.9907C498.574 16.9601 501.534 30.708 501.534 52.2347V79.204C501.534 106.388 498.027 122.497 490.96 127.628C488.227 129.559 484.84 130.995 480.694 132.015L506.24 227.915H470.8L446.4 131.667V227.915H413.254ZM446.4 29.0547V106.771H458.92C460.694 106.771 462.094 106.472 463.067 105.885C465.854 104.313 467.214 96.2001 467.214 81.5281V50.7361C467.214 37.8401 465.934 30.7787 463.36 29.5934C462.56 29.2587 461.067 29.0547 458.92 29.0547H446.4" fill="white"></path> <path fill-rule="evenodd" clip-rule="evenodd" d="M0 522.654V515.078H9.4V510.404H0V503.309H9.4H20.8799V498.73H9.4H0V491.55H9.4L9.38659 486.96H0V479.816H9.4L9.38659 475.249H0V468.141H9.4L9.41328 463.466H0V456.37H9.4V451.696H0V444.589H9.4H20.8799V440.021H9.4H0V432.83H9.4L9.38659 428.252H0V421.096H9.4L9.38659 416.54H0V409.432H9.4L9.41328 404.758H0V397.65H9.4V392.976H0V385.869L20.8799 385.88V385.869V381.301H9.4H0V374.109H9.4L9.38659 369.53H0V362.376H9.4L9.38659 357.845H0V350.701H9.4L9.41328 346.026H0V338.93H9.4V334.256H0V327.16H9.4H20.8799V322.581H9.4H0V315.401H9.4L9.38659 310.812H0V303.668H9.4L9.38659 299.101H0V291.993H9.4L9.41328 287.317H0V280.222H9.4V275.548H0V268.44H9.4H20.8799V263.873H9.4H0V256.694H9.4V252.102H0V245.486H34.04V488.613H506.24V522.654H34.04H0Z" fill="#EEE21D"></path> <path d="M216.093 514.156H212.96V499.222L208.227 514.156H206.613L201.853 499.222V514.156H199.36V497.076H204.16L207.747 508.081L211.24 497.076H216.093V514.156ZM223.733 509.182L217.667 497.076H221L225.2 505.742L228.653 497.076H231.52L226.187 509.936C225.533 511.556 224.813 512.694 224.093 513.281C223.373 513.87 222.36 514.156 221 514.156H219.853V511.483H221C221.747 511.483 222.307 511.351 222.613 511.111C222.947 510.826 223.227 510.381 223.48 509.782L223.733 509.182ZM246.253 504.435L252.547 514.156H249.12L243.92 506.136L242.92 506.46V514.156H240.013V506.46L239.013 506.136L233.84 514.156H230.8L236.707 505.262L231.267 497.076H234.64L239.36 504.244L240.013 504.435V497.076H242.92V504.435L243.56 504.244L248.32 497.076H251.333L246.253 504.435ZM272.68 514.156H269.6V506.736H263.08V514.156H260.013V497.076H263.08V504.088H269.6V497.076H272.68V514.156ZM289.787 514.156H286.52L285.16 510.092H278.587L277.253 514.156H274.653L280.293 497.076H284.08L289.787 514.156ZM284.307 507.635L281.827 500.026L279.347 507.635H284.307ZM306.933 514.156V506.808C305.76 508.066 304.307 508.667 302.573 508.667C301.56 508.667 300.68 508.439 299.933 507.996C299.16 507.552 298.627 506.928 298.267 506.184C297.933 505.454 297.747 504.435 297.747 503.07V497.076H300.813V503.226C300.813 504.28 301.027 505.023 301.387 505.514C301.76 505.97 302.413 506.184 303.293 506.184C304.707 506.184 305.907 505.682 306.933 504.664V497.076H310.013V514.156H306.933ZM327.12 514.156H323.84L322.493 510.092H315.907L314.573 514.156H311.973L317.627 497.076H321.413L327.12 514.156ZM321.64 507.635L319.16 500.026L316.68 507.635H321.64ZM338.707 508.211L341.547 508.559C341.373 510.236 340.693 511.639 339.573 512.755C338.413 513.87 336.947 514.396 335.093 514.396C333.533 514.396 332.253 514.014 331.307 513.222C330.333 512.467 329.573 511.387 329.053 510.068C328.52 508.703 328.267 507.251 328.267 505.598C328.267 503.022 328.88 500.888 330.107 499.294C331.36 497.639 333.053 496.838 335.2 496.838C336.88 496.838 338.293 497.341 339.427 498.383C340.547 499.438 341.253 500.936 341.547 502.866L338.707 503.166C338.16 500.6 337.013 499.306 335.227 499.306C334.08 499.306 333.187 499.856 332.547 500.936C331.92 501.978 331.6 503.525 331.6 505.55C331.6 507.635 331.92 509.182 332.613 510.236C333.307 511.28 334.2 511.83 335.32 511.83C336.227 511.83 336.987 511.471 337.627 510.763C338.267 510.068 338.627 509.218 338.707 508.211" fill="#0D1217"></path> </svg> 